<?xml version="1.0" encoding="UTF-8" standalone="no"?>
<!-- Created with Inkscape (http://www.inkscape.org/) -->

<svg
   xmlns:dc="http://purl.org/dc/elements/1.1/"
   xmlns:cc="http://creativecommons.org/ns#"
   xmlns:rdf="http://www.w3.org/1999/02/22-rdf-syntax-ns#"
   xmlns:svg="http://www.w3.org/2000/svg"
   xmlns="http://www.w3.org/2000/svg"
   xmlns:xlink="http://www.w3.org/1999/xlink"
   xmlns:sodipodi="http://sodipodi.sourceforge.net/DTD/sodipodi-0.dtd"
   xmlns:inkscape="http://www.inkscape.org/namespaces/inkscape"
   width="400"
   height="400"
   id="svg2"
   version="1.1"
   inkscape:version="0.48.3.1 r9886"
   sodipodi:docname="joker.svg">
  <title
     id="title4104">Joker</title>
  <defs
     id="defs4">
    <linearGradient
       inkscape:collect="always"
       id="linearGradient4096">
      <stop
         style="stop-color:#bdcdd4;stop-opacity:1;"
         offset="0"
         id="stop4098" />
      <stop
         style="stop-color:#ffffff;stop-opacity:1"
         offset="1"
         id="stop4100" />
    </linearGradient>
    <linearGradient
       inkscape:collect="always"
       id="linearGradient4072">
      <stop
         style="stop-color:#dc0000;stop-opacity:1;"
         offset="0"
         id="stop4074" />
      <stop
         style="stop-color:#b50000;stop-opacity:1"
         offset="1"
         id="stop4076" />
    </linearGradient>
    <linearGradient
       inkscape:collect="always"
       id="linearGradient4064">
      <stop
         style="stop-color:#dc0000;stop-opacity:1;"
         offset="0"
         id="stop4066" />
      <stop
         style="stop-color:#b50000;stop-opacity:1"
         offset="1"
         id="stop4068" />
    </linearGradient>
    <linearGradient
       inkscape:collect="always"
       id="linearGradient4040">
      <stop
         style="stop-color:#f9d9ff;stop-opacity:1;"
         offset="0"
         id="stop4042" />
      <stop
         style="stop-color:#f9d9ff;stop-opacity:0;"
         offset="1"
         id="stop4044" />
    </linearGradient>
    <linearGradient
       inkscape:collect="always"
       id="linearGradient4032">
      <stop
         style="stop-color:#ffdfff;stop-opacity:1;"
         offset="0"
         id="stop4034" />
      <stop
         style="stop-color:#ffdfff;stop-opacity:0;"
         offset="1"
         id="stop4036" />
    </linearGradient>
    <linearGradient
       inkscape:collect="always"
       id="linearGradient4016">
      <stop
         style="stop-color:#ff3300;stop-opacity:1;"
         offset="0"
         id="stop4018" />
      <stop
         style="stop-color:#0e232e;stop-opacity:1"
         offset="1"
         id="stop4020" />
    </linearGradient>
    <linearGradient
       inkscape:collect="always"
       id="linearGradient4008">
      <stop
         style="stop-color:#ff4141;stop-opacity:1"
         offset="0"
         id="stop4010" />
      <stop
         style="stop-color:#dc0000;stop-opacity:1"
         offset="1"
         id="stop4012" />
    </linearGradient>
    <filter
       inkscape:collect="always"
       id="filter4002"
       x="-0.15579917"
       width="1.3115983"
       y="-0.52224394"
       height="2.0444879">
      <feGaussianBlur
         inkscape:collect="always"
         stdDeviation="40.786577"
         id="feGaussianBlur4004" />
    </filter>
    <radialGradient
       inkscape:collect="always"
       xlink:href="#linearGradient4008"
       id="radialGradient4014"
       cx="-444.79919"
       cy="1007.3555"
       fx="-444.79919"
       fy="1007.3555"
       r="104.28571"
       gradientUnits="userSpaceOnUse"
       gradientTransform="matrix(0.73056145,-0.06190206,0.0600611,0.99745868,-180.34893,-24.973977)" />
    <radialGradient
       inkscape:collect="always"
       xlink:href="#linearGradient4016"
       id="radialGradient4022"
       cx="-445.71429"
       cy="1799.1189"
       fx="-445.71429"
       fy="1799.1189"
       r="162.92197"
       gradientTransform="matrix(0.39751992,-0.33057026,0.44434776,0.53434057,-439.77314,-111.85733)"
       gradientUnits="userSpaceOnUse" />
    <radialGradient
       inkscape:collect="always"
       xlink:href="#linearGradient4032"
       id="radialGradient4038"
       cx="-59.415379"
       cy="298.6116"
       fx="-59.415379"
       fy="298.6116"
       r="16.785715"
       gradientTransform="matrix(2.8226198,2.0767351,-0.47288536,1.5383963,249.50069,-45.280672)"
       gradientUnits="userSpaceOnUse" />
    <radialGradient
       inkscape:collect="always"
       xlink:href="#linearGradient4040"
       id="radialGradient4046"
       cx="-65.288467"
       cy="298.38367"
       fx="-65.288467"
       fy="298.38367"
       r="16.785715"
       gradientTransform="matrix(3.9161943,2.4464475,-0.31062847,1.617509,283.08032,-32.560002)"
       gradientUnits="userSpaceOnUse" />
    <radialGradient
       inkscape:collect="always"
       xlink:href="#linearGradient4064"
       id="radialGradient4070"
       cx="159.49698"
       cy="408.84232"
       fx="159.49698"
       fy="408.84232"
       r="27.142857"
       gradientTransform="matrix(1.1206949,1.8863617,-1.0184699,2.7382644,94.153069,-1135.3882)"
       gradientUnits="userSpaceOnUse" />
    <radialGradient
       inkscape:collect="always"
       xlink:href="#linearGradient4072"
       id="radialGradient4078"
       cx="-137.54674"
       cy="284.44867"
       fx="-137.54674"
       fy="284.44867"
       r="27.142857"
       gradientTransform="matrix(0.3073099,1.3949185,-1.8010823,2.0607847,417.0382,-121.15148)"
       gradientUnits="userSpaceOnUse" />
    <linearGradient
       inkscape:collect="always"
       xlink:href="#linearGradient4096"
       id="linearGradient4102"
       x1="194.28572"
       y1="394.28571"
       x2="188.57143"
       y2="37.142857"
       gradientUnits="userSpaceOnUse" />
  </defs>
  <sodipodi:namedview
     id="base"
     pagecolor="#ffffff"
     bordercolor="#666666"
     borderopacity="1.0"
     inkscape:pageopacity="0.0"
     inkscape:pageshadow="2"
     inkscape:zoom="0.35"
     inkscape:cx="-70.714286"
     inkscape:cy="-153.91523"
     inkscape:document-units="px"
     inkscape:current-layer="layer1"
     showgrid="false"
     inkscape:window-width="1366"
     inkscape:window-height="706"
     inkscape:window-x="-8"
     inkscape:window-y="-8"
     inkscape:window-maximized="1" />
  <metadata
     id="metadata7">
    <rdf:RDF>
      <cc:Work
         rdf:about="">
        <dc:format>image/svg+xml</dc:format>
        <dc:type
           rdf:resource="http://purl.org/dc/dcmitype/StillImage" />
        <dc:title>Joker</dc:title>
        <dc:subject>
          <rdf:Bag>
            <rdf:li>joker</rdf:li>
            <rdf:li>comedy</rdf:li>
            <rdf:li>cartoon</rdf:li>
            <rdf:li>face</rdf:li>
            <rdf:li>comic</rdf:li>
            <rdf:li>funny</rdf:li>
            <rdf:li>smile</rdf:li>
            <rdf:li>kids</rdf:li>
          </rdf:Bag>
        </dc:subject>
        <dc:date>2012-05-18</dc:date>
        <cc:license
           rdf:resource="http://creativecommons.org/licenses/publicdomain/" />
        <dc:creator>
          <cc:Agent>
            <dc:title>NetAlloy</dc:title>
          </cc:Agent>
        </dc:creator>
        <dc:publisher>
          <cc:Agent>
            <dc:title>netalloy.com, India</dc:title>
          </cc:Agent>
        </dc:publisher>
      </cc:Work>
      <cc:License
         rdf:about="http://creativecommons.org/licenses/publicdomain/">
        <cc:permits
           rdf:resource="http://creativecommons.org/ns#Reproduction" />
        <cc:permits
           rdf:resource="http://creativecommons.org/ns#Distribution" />
        <cc:permits
           rdf:resource="http://creativecommons.org/ns#DerivativeWorks" />
      </cc:License>
    </rdf:RDF>
  </metadata>
  <g
     inkscape:label="Layer 1"
     inkscape:groupmode="layer"
     id="layer1"
     transform="translate(0,-652.36218)">
    <path
       sodipodi:type="arc"
       style="fill:url(#linearGradient4102);fill-opacity:1;stroke:#fdddcd;stroke-width:0;stroke-linecap:round;stroke-miterlimit:4;stroke-opacity:1;stroke-dasharray:none;stroke-dashoffset:0"
       id="path4094"
       sodipodi:cx="201.42857"
       sodipodi:cy="204.28572"
       sodipodi:rx="207.14285"
       sodipodi:ry="198.57143"
       d="m 408.57143,204.28572 a 207.14285,198.57143 0 1 1 -414.2857092,0 207.14285,198.57143 0 1 1 414.2857092,0 z"
       transform="translate(0,652.36218)" />
    <path
       transform="matrix(0.7187049,-0.0705962,0.43531256,0.77881451,60.474476,649.94162)"
       d="m -105.71429,300.93362 a 27.142857,45.714287 0 1 1 -54.28571,0 27.142857,45.714287 0 1 1 54.28571,0 z"
       sodipodi:ry="45.714287"
       sodipodi:rx="27.142857"
       sodipodi:cy="300.93362"
       sodipodi:cx="-132.85715"
       id="path3974"
       style="fill:url(#radialGradient4078);fill-opacity:1;stroke:#78330d;stroke-width:0;stroke-linecap:round;stroke-linejoin:round;stroke-miterlimit:4;stroke-opacity:1;stroke-dasharray:none;stroke-dashoffset:0"
       sodipodi:type="arc" />
    <path
       sodipodi:type="arc"
       style="fill:url(#radialGradient4070);fill-opacity:1;stroke:#78330d;stroke-width:0;stroke-linecap:round;stroke-linejoin:round;stroke-miterlimit:4;stroke-opacity:1;stroke-dasharray:none;stroke-dashoffset:0"
       id="path3025"
       sodipodi:cx="-132.85715"
       sodipodi:cy="300.93362"
       sodipodi:rx="27.142857"
       sodipodi:ry="45.714287"
       d="m -105.71429,300.93362 a 27.142857,45.714287 0 1 1 -54.28571,0 27.142857,45.714287 0 1 1 54.28571,0 z"
       transform="matrix(-0.7187049,-0.0705962,-0.43531256,0.77881451,323.02417,649.94162)" />
    <path
       style="fill:#ffffff;fill-opacity:1;stroke:#fdddcd;stroke-width:0;stroke-linecap:round;stroke-linejoin:round;stroke-miterlimit:4;stroke-opacity:1;stroke-dasharray:none;stroke-dashoffset:0"
       d="m 277.39062,855.66126 c -24.42738,11.39932 -56.40722,18.31063 -91.41182,18.31063 -31.39366,0 -60.35166,-5.56118 -83.61353,-14.93029 0.52552,12.7215 2.86928,24.42582 12.44412,36.02714 -11.91341,13.95538 -4.33416,30.03903 -4.40361,45.99325 -0.16927,38.90476 47.95515,75.87631 78.60116,75.92601 30.64581,0.048 79.07486,-36.77194 79.24403,-75.67585 0.0589,-13.60896 9.24356,-26.86085 0.43903,-39.62111 10.78556,-13.41967 8.62676,-27.78972 8.70062,-44.77027 0.002,-0.42111 0.004,-0.8392 0,-1.25951 z"
       id="path3029"
       inkscape:connector-curvature="0"
       sodipodi:nodetypes="csccscsccc" />
    <path
       style="fill:#dc0000;fill-opacity:1;stroke:#153184;stroke-width:0;stroke-linecap:round;stroke-miterlimit:4;stroke-opacity:1;stroke-dasharray:none;stroke-dashoffset:0"
       d="m 92.71008,815.11415 c -5.620268,4.87111 -8.748879,10.2529 -8.748879,15.9129 0,21.89831 46.688959,39.65513 104.281089,39.65513 57.59191,0 104.28089,-17.75682 104.28089,-39.65513 0,-5.66 -3.11949,-11.04179 -8.73972,-15.9129 -6.19181,17.96406 -46.60629,31.82585 -95.54117,31.82585 -48.9351,0 -89.340376,-13.86179 -95.53221,-31.82585 z"
       id="path3774"
       inkscape:connector-curvature="0" />
    <path
       id="path3781"
       d="m 105.33238,791.63777 c -4.87751,4.22743 -7.592835,8.89809 -7.592835,13.81026 0,19.00477 40.520135,34.41483 90.502745,34.41483 49.9826,0 90.50253,-15.41006 90.50253,-34.41483 0,-4.91217 -2.70723,-9.58283 -7.58495,-13.81026 -5.37354,15.59035 -40.44839,27.62068 -82.91758,27.62068 -42.46941,0 -77.53607,-12.03033 -82.90991,-27.62068 z"
       style="fill:#0084c8;fill-opacity:1;stroke:#153184;stroke-width:0;stroke-linecap:round;stroke-miterlimit:4;stroke-opacity:1;stroke-dasharray:none;stroke-dashoffset:0"
       inkscape:connector-curvature="0" />
    <path
       inkscape:connector-curvature="0"
       style="fill:#9ade00;fill-opacity:1;stroke:#153184;stroke-width:0;stroke-linecap:round;stroke-miterlimit:4;stroke-opacity:1;stroke-dasharray:none;stroke-dashoffset:0"
       d="m 119.46098,771.34529 c -3.94549,3.41939 -6.14178,7.19731 -6.14178,11.17086 0,15.37292 32.77615,27.83767 73.20649,27.83767 40.43033,0 73.20648,-12.46475 73.20648,-27.83767 0,-3.97355 -2.18995,-7.75147 -6.13527,-11.17086 -4.34676,12.61082 -32.71825,22.34183 -67.07121,22.34183 -34.35297,0 -62.71799,-9.73101 -67.06471,-22.34183 z"
       id="path3783" />
    <path
       id="path3785"
       d="m 133.69453,756.66355 c -3.10773,2.69353 -4.83802,5.66975 -4.83802,8.79992 0,12.11025 25.81984,21.92942 57.66918,21.92942 31.84933,0 57.66917,-9.81917 57.66917,-21.92942 0,-3.13017 -1.72513,-6.10639 -4.83316,-8.79992 -3.42425,9.93428 -25.77411,17.6 -52.83601,17.6 -27.06191,0 -49.40673,-7.66572 -52.83116,-17.6 z"
       style="fill:#364e59;fill-opacity:1;stroke:#153184;stroke-width:0;stroke-linecap:round;stroke-miterlimit:4;stroke-opacity:1;stroke-dasharray:none;stroke-dashoffset:0"
       inkscape:connector-curvature="0" />
    <path
       inkscape:connector-curvature="0"
       style="fill:#d76cff;fill-opacity:1;stroke:#153184;stroke-width:0;stroke-linecap:round;stroke-miterlimit:4;stroke-opacity:1;stroke-dasharray:none;stroke-dashoffset:0"
       d="m 142.7731,736.79399 c -2.5233,2.18682 -3.92813,4.60315 -3.92813,7.14479 0,9.83239 20.96358,17.80462 46.82252,17.80462 25.85874,0 46.82232,-7.97223 46.82232,-17.80462 0,-2.54164 -1.40071,-4.95797 -3.9241,-7.14479 -2.78021,8.06567 -20.92631,14.28963 -42.89822,14.28963 -21.97212,0 -40.11405,-6.22396 -42.89439,-14.28963 z"
       id="path3787" />
    <path
       id="path3789"
       d="m 152.87331,726.32626 c -1.82829,1.58457 -2.84615,3.3351 -2.84615,5.17667 0,7.12378 15.18852,12.89968 33.92373,12.89968 18.73522,0 33.92353,-5.7759 33.92353,-12.89968 0,-1.84157 -1.01472,-3.5921 -2.84289,-5.17667 -2.01431,5.84387 -15.16162,10.35318 -31.08064,10.35318 -15.91901,0 -29.06319,-4.50931 -31.07758,-10.35318 z"
       style="fill:#bdcdd4;fill-opacity:1;stroke:#153184;stroke-width:0;stroke-linecap:round;stroke-miterlimit:4;stroke-opacity:1;stroke-dasharray:none;stroke-dashoffset:0"
       inkscape:connector-curvature="0" />
    <path
       sodipodi:type="arc"
       style="fill:#dc0000;fill-opacity:1;stroke:#153184;stroke-width:0;stroke-linecap:round;stroke-miterlimit:4;stroke-opacity:1;stroke-dasharray:none;stroke-dashoffset:0"
       id="path3791"
       sodipodi:cx="-450"
       sodipodi:cy="-84.285713"
       sodipodi:rx="98.571426"
       sodipodi:ry="81.428574"
       d="m -351.42857,-84.285713 a 98.571426,81.428574 0 1 1 -197.14286,0 98.571426,81.428574 0 1 1 197.14286,0 z"
       transform="matrix(0.19957078,0,0,0.24497163,273.67708,723.54949)" />
    <path
       sodipodi:type="arc"
       style="fill:url(#radialGradient4014);fill-opacity:1;stroke:#153184;stroke-width:0;stroke-linecap:round;stroke-miterlimit:4;stroke-opacity:1;stroke-dasharray:none;stroke-dashoffset:0"
       id="path3856"
       sodipodi:cx="-421.42856"
       sodipodi:cy="1012.8571"
       sodipodi:rx="104.28571"
       sodipodi:ry="104.28571"
       d="m -317.14285,1012.8571 a 104.28571,104.28571 0 1 1 -208.57142,0 104.28571,104.28571 0 1 1 208.57142,0 z"
       transform="matrix(0.26538482,0,0,0.22371814,297.20306,718.61802)" />
    <path
       style="fill:url(#radialGradient4022);fill-opacity:1;stroke:#000000;stroke-width:0;stroke-linecap:butt;stroke-linejoin:miter;stroke-miterlimit:4;stroke-opacity:1;stroke-dasharray:none"
       d="m 141.11405,954.77122 c 0,0 20.37806,22.33582 41.91676,24.05947 19.71835,1.57798 49.6322,-25.31581 49.6322,-25.31581 0,0 -25.57462,47.91682 -47.42484,46.37029 -23.81917,-1.68635 -44.12412,-45.11395 -44.12412,-45.11395 z"
       id="path3858"
       inkscape:connector-curvature="0"
       sodipodi:nodetypes="cscsc" />
    <path
       sodipodi:type="arc"
       style="fill:#ff3300;fill-opacity:1;stroke:#153184;stroke-width:0;stroke-linecap:round;stroke-miterlimit:4;stroke-opacity:1;stroke-dasharray:none;stroke-dashoffset:0"
       id="path3860"
       sodipodi:cx="-290"
       sodipodi:cy="1017.1429"
       sodipodi:rx="27.142857"
       sodipodi:ry="28.571428"
       d="m -262.85714,1017.1429 a 27.142857,28.571428 0 1 1 -54.28572,0 27.142857,28.571428 0 1 1 54.28572,0 z"
       transform="matrix(0.33184051,0,0,0.29636776,335.89152,653.43164)" />
    <path
       sodipodi:type="arc"
       style="fill:#ff3300;fill-opacity:1;stroke:#153184;stroke-width:0;stroke-linecap:round;stroke-miterlimit:4;stroke-opacity:1;stroke-dasharray:none;stroke-dashoffset:0"
       id="path3862"
       sodipodi:cx="-652.85712"
       sodipodi:cy="988.57141"
       sodipodi:rx="27.142857"
       sodipodi:ry="28.571428"
       d="m -625.71426,988.57141 a 27.142857,28.571428 0 1 1 -54.28571,0 27.142857,28.571428 0 1 1 54.28571,0 z"
       transform="matrix(0.33184051,0,0,0.29636776,353.24888,659.49145)" />
    <path
       sodipodi:type="arc"
       style="fill:url(#radialGradient4038);fill-opacity:1;stroke:#78330d;stroke-width:0;stroke-linecap:round;stroke-linejoin:round;stroke-miterlimit:4;stroke-opacity:1;stroke-dasharray:none;stroke-dashoffset:0"
       id="path3794"
       sodipodi:cx="-57.5"
       sodipodi:cy="312.36218"
       sodipodi:rx="16.785715"
       sodipodi:ry="26.428572"
       d="m -40.714285,312.36218 a 16.785715,26.428572 0 1 1 -33.57143,0 16.785715,26.428572 0 1 1 33.57143,0 z"
       transform="matrix(1.138561,0.08000282,-0.0046179,0.9275195,214.54566,617.94792)" />
    <path
       sodipodi:type="arc"
       style="fill:#333366;fill-opacity:1;stroke:#78330d;stroke-width:0;stroke-linecap:round;stroke-linejoin:round;stroke-miterlimit:4;stroke-opacity:1;stroke-dasharray:none;stroke-dashoffset:0"
       id="path3803"
       sodipodi:cx="-51.42857"
       sodipodi:cy="319.86218"
       sodipodi:rx="13.571428"
       sodipodi:ry="13.214286"
       d="m -37.857141,319.86218 a 13.571428,13.214286 0 1 1 -27.142857,0 13.571428,13.214286 0 1 1 27.142857,0 z"
       transform="matrix(0.93881235,0.0659672,-0.0046179,0.9275195,197.7184,612.12617)" />
    <path
       sodipodi:type="arc"
       style="opacity:0.90707966;fill:#ffffff;fill-opacity:1;stroke:#78330d;stroke-width:0;stroke-linecap:round;stroke-linejoin:round;stroke-miterlimit:4;stroke-opacity:1;stroke-dasharray:none;stroke-dashoffset:0"
       id="path3862-2"
       sodipodi:cx="-53.214287"
       sodipodi:cy="312.36218"
       sodipodi:rx="4.6428571"
       sodipodi:ry="4.2857141"
       d="m -48.57143,312.36218 a 4.6428571,4.2857141 0 1 1 -9.285714,0 4.6428571,4.2857141 0 1 1 9.285714,0 z"
       transform="matrix(0.93881235,0.0659672,-0.0046179,0.9275195,202.71109,619.98589)" />
    <path
       transform="matrix(-1.138561,0.08000282,0.0046179,0.9275195,156.57533,617.94792)"
       d="m -40.714285,312.36218 a 16.785715,26.428572 0 1 1 -33.57143,0 16.785715,26.428572 0 1 1 33.57143,0 z"
       sodipodi:ry="26.428572"
       sodipodi:rx="16.785715"
       sodipodi:cy="312.36218"
       sodipodi:cx="-57.5"
       id="path3881"
       style="fill:url(#radialGradient4046);fill-opacity:1;stroke:#78330d;stroke-width:0;stroke-linecap:round;stroke-linejoin:round;stroke-miterlimit:4;stroke-opacity:1;stroke-dasharray:none;stroke-dashoffset:0"
       sodipodi:type="arc" />
    <path
       transform="matrix(-0.93881235,0.0659672,0.0046179,0.9275195,173.40259,612.12617)"
       d="m -37.857141,319.86218 a 13.571428,13.214286 0 1 1 -27.142857,0 13.571428,13.214286 0 1 1 27.142857,0 z"
       sodipodi:ry="13.214286"
       sodipodi:rx="13.571428"
       sodipodi:cy="319.86218"
       sodipodi:cx="-51.42857"
       id="path3883"
       style="fill:#333366;fill-opacity:1;stroke:#78330d;stroke-width:0;stroke-linecap:round;stroke-linejoin:round;stroke-miterlimit:4;stroke-opacity:1;stroke-dasharray:none;stroke-dashoffset:0"
       sodipodi:type="arc" />
    <path
       transform="matrix(-0.93881235,0.0659672,0.0046179,0.9275195,168.4099,619.98589)"
       d="m -48.57143,312.36218 a 4.6428571,4.2857141 0 1 1 -9.285714,0 4.6428571,4.2857141 0 1 1 9.285714,0 z"
       sodipodi:ry="4.2857141"
       sodipodi:rx="4.6428571"
       sodipodi:cy="312.36218"
       sodipodi:cx="-53.214287"
       id="path3885"
       style="opacity:0.90707966;fill:#ffffff;fill-opacity:1;stroke:#78330d;stroke-width:0;stroke-linecap:round;stroke-linejoin:round;stroke-miterlimit:4;stroke-opacity:1;stroke-dasharray:none;stroke-dashoffset:0"
       sodipodi:type="arc" />
    <path
       inkscape:connector-curvature="0"
       id="path3996"
       d="m -726.37175,1777.9474 c -16.93087,16.4307 -26.35593,34.5834 -26.35593,53.6775 0,73.8619 140.65079,133.7594 314.14732,133.7594 173.49653,0 314.14732,-59.8975 314.14732,-133.7594 0,-19.0941 -9.39753,-37.2468 -26.3284,-53.6775 -18.65278,60.5939 -140.40205,107.3518 -287.81892,107.3518 -147.41687,0 -269.13832,-46.7579 -287.79139,-107.3518 z"
       style="opacity:0.3495575;fill:#364e59;fill-opacity:1;stroke:#153184;stroke-width:0;stroke-linecap:round;stroke-miterlimit:4;stroke-opacity:1;stroke-dasharray:none;stroke-dashoffset:0;filter:url(#filter4002)"
       transform="matrix(0.30039403,0,0,0.26828283,322.67493,510.56811)" />
  </g>
</svg>
