<?xml version="1.0" encoding="UTF-8" standalone="no"?>
<!-- Created with Inkscape (http://www.inkscape.org/) -->

<svg
   xmlns:dc="http://purl.org/dc/elements/1.1/"
   xmlns:cc="http://creativecommons.org/ns#"
   xmlns:rdf="http://www.w3.org/1999/02/22-rdf-syntax-ns#"
   xmlns:svg="http://www.w3.org/2000/svg"
   xmlns="http://www.w3.org/2000/svg"
   xmlns:sodipodi="http://sodipodi.sourceforge.net/DTD/sodipodi-0.dtd"
   xmlns:inkscape="http://www.inkscape.org/namespaces/inkscape"
   width="817.15717"
   height="748.42267"
   id="svg2"
   version="1.1"
   inkscape:version="0.47 r22583"
   sodipodi:docname="New document 1">
  <defs
     id="defs4">
    <inkscape:perspective
       sodipodi:type="inkscape:persp3d"
       inkscape:vp_x="0 : 526.18109 : 1"
       inkscape:vp_y="0 : 1000 : 0"
       inkscape:vp_z="744.09448 : 526.18109 : 1"
       inkscape:persp3d-origin="372.04724 : 350.78739 : 1"
       id="perspective10" />
    <inkscape:perspective
       id="perspective2836"
       inkscape:persp3d-origin="0.5 : 0.33333333 : 1"
       inkscape:vp_z="1 : 0.5 : 1"
       inkscape:vp_y="0 : 1000 : 0"
       inkscape:vp_x="0 : 0.5 : 1"
       sodipodi:type="inkscape:persp3d" />
    <inkscape:perspective
       id="perspective3638"
       inkscape:persp3d-origin="0.5 : 0.33333333 : 1"
       inkscape:vp_z="1 : 0.5 : 1"
       inkscape:vp_y="0 : 1000 : 0"
       inkscape:vp_x="0 : 0.5 : 1"
       sodipodi:type="inkscape:persp3d" />
    <inkscape:perspective
       id="perspective3673"
       inkscape:persp3d-origin="0.5 : 0.33333333 : 1"
       inkscape:vp_z="1 : 0.5 : 1"
       inkscape:vp_y="0 : 1000 : 0"
       inkscape:vp_x="0 : 0.5 : 1"
       sodipodi:type="inkscape:persp3d" />
    <inkscape:perspective
       id="perspective3725"
       inkscape:persp3d-origin="0.5 : 0.33333333 : 1"
       inkscape:vp_z="1 : 0.5 : 1"
       inkscape:vp_y="0 : 1000 : 0"
       inkscape:vp_x="0 : 0.5 : 1"
       sodipodi:type="inkscape:persp3d" />
    <inkscape:perspective
       id="perspective3747"
       inkscape:persp3d-origin="0.5 : 0.33333333 : 1"
       inkscape:vp_z="1 : 0.5 : 1"
       inkscape:vp_y="0 : 1000 : 0"
       inkscape:vp_x="0 : 0.5 : 1"
       sodipodi:type="inkscape:persp3d" />
    <inkscape:perspective
       id="perspective3769"
       inkscape:persp3d-origin="0.5 : 0.33333333 : 1"
       inkscape:vp_z="1 : 0.5 : 1"
       inkscape:vp_y="0 : 1000 : 0"
       inkscape:vp_x="0 : 0.5 : 1"
       sodipodi:type="inkscape:persp3d" />
    <inkscape:perspective
       id="perspective3805"
       inkscape:persp3d-origin="0.5 : 0.33333333 : 1"
       inkscape:vp_z="1 : 0.5 : 1"
       inkscape:vp_y="0 : 1000 : 0"
       inkscape:vp_x="0 : 0.5 : 1"
       sodipodi:type="inkscape:persp3d" />
    <inkscape:perspective
       id="perspective3827"
       inkscape:persp3d-origin="0.5 : 0.33333333 : 1"
       inkscape:vp_z="1 : 0.5 : 1"
       inkscape:vp_y="0 : 1000 : 0"
       inkscape:vp_x="0 : 0.5 : 1"
       sodipodi:type="inkscape:persp3d" />
    <inkscape:perspective
       id="perspective3850"
       inkscape:persp3d-origin="0.5 : 0.33333333 : 1"
       inkscape:vp_z="1 : 0.5 : 1"
       inkscape:vp_y="0 : 1000 : 0"
       inkscape:vp_x="0 : 0.5 : 1"
       sodipodi:type="inkscape:persp3d" />
    <inkscape:perspective
       id="perspective3897"
       inkscape:persp3d-origin="0.5 : 0.33333333 : 1"
       inkscape:vp_z="1 : 0.5 : 1"
       inkscape:vp_y="0 : 1000 : 0"
       inkscape:vp_x="0 : 0.5 : 1"
       sodipodi:type="inkscape:persp3d" />
    <inkscape:perspective
       id="perspective3920"
       inkscape:persp3d-origin="0.5 : 0.33333333 : 1"
       inkscape:vp_z="1 : 0.5 : 1"
       inkscape:vp_y="0 : 1000 : 0"
       inkscape:vp_x="0 : 0.5 : 1"
       sodipodi:type="inkscape:persp3d" />
    <inkscape:perspective
       id="perspective3942"
       inkscape:persp3d-origin="0.5 : 0.33333333 : 1"
       inkscape:vp_z="1 : 0.5 : 1"
       inkscape:vp_y="0 : 1000 : 0"
       inkscape:vp_x="0 : 0.5 : 1"
       sodipodi:type="inkscape:persp3d" />
    <inkscape:perspective
       id="perspective3964"
       inkscape:persp3d-origin="0.5 : 0.33333333 : 1"
       inkscape:vp_z="1 : 0.5 : 1"
       inkscape:vp_y="0 : 1000 : 0"
       inkscape:vp_x="0 : 0.5 : 1"
       sodipodi:type="inkscape:persp3d" />
    <inkscape:perspective
       id="perspective3986"
       inkscape:persp3d-origin="0.5 : 0.33333333 : 1"
       inkscape:vp_z="1 : 0.5 : 1"
       inkscape:vp_y="0 : 1000 : 0"
       inkscape:vp_x="0 : 0.5 : 1"
       sodipodi:type="inkscape:persp3d" />
    <inkscape:perspective
       id="perspective4011"
       inkscape:persp3d-origin="0.5 : 0.33333333 : 1"
       inkscape:vp_z="1 : 0.5 : 1"
       inkscape:vp_y="0 : 1000 : 0"
       inkscape:vp_x="0 : 0.5 : 1"
       sodipodi:type="inkscape:persp3d" />
    <inkscape:perspective
       id="perspective4033"
       inkscape:persp3d-origin="0.5 : 0.33333333 : 1"
       inkscape:vp_z="1 : 0.5 : 1"
       inkscape:vp_y="0 : 1000 : 0"
       inkscape:vp_x="0 : 0.5 : 1"
       sodipodi:type="inkscape:persp3d" />
    <inkscape:perspective
       id="perspective4055"
       inkscape:persp3d-origin="0.5 : 0.33333333 : 1"
       inkscape:vp_z="1 : 0.5 : 1"
       inkscape:vp_y="0 : 1000 : 0"
       inkscape:vp_x="0 : 0.5 : 1"
       sodipodi:type="inkscape:persp3d" />
    <inkscape:perspective
       id="perspective4087"
       inkscape:persp3d-origin="0.5 : 0.33333333 : 1"
       inkscape:vp_z="1 : 0.5 : 1"
       inkscape:vp_y="0 : 1000 : 0"
       inkscape:vp_x="0 : 0.5 : 1"
       sodipodi:type="inkscape:persp3d" />
    <inkscape:perspective
       id="perspective4112"
       inkscape:persp3d-origin="0.5 : 0.33333333 : 1"
       inkscape:vp_z="1 : 0.5 : 1"
       inkscape:vp_y="0 : 1000 : 0"
       inkscape:vp_x="0 : 0.5 : 1"
       sodipodi:type="inkscape:persp3d" />
    <inkscape:perspective
       id="perspective4161"
       inkscape:persp3d-origin="0.5 : 0.33333333 : 1"
       inkscape:vp_z="1 : 0.5 : 1"
       inkscape:vp_y="0 : 1000 : 0"
       inkscape:vp_x="0 : 0.5 : 1"
       sodipodi:type="inkscape:persp3d" />
    <inkscape:perspective
       id="perspective4161-2"
       inkscape:persp3d-origin="0.5 : 0.33333333 : 1"
       inkscape:vp_z="1 : 0.5 : 1"
       inkscape:vp_y="0 : 1000 : 0"
       inkscape:vp_x="0 : 0.5 : 1"
       sodipodi:type="inkscape:persp3d" />
    <inkscape:perspective
       id="perspective4161-4"
       inkscape:persp3d-origin="0.5 : 0.33333333 : 1"
       inkscape:vp_z="1 : 0.5 : 1"
       inkscape:vp_y="0 : 1000 : 0"
       inkscape:vp_x="0 : 0.5 : 1"
       sodipodi:type="inkscape:persp3d" />
    <inkscape:perspective
       id="perspective4161-5"
       inkscape:persp3d-origin="0.5 : 0.33333333 : 1"
       inkscape:vp_z="1 : 0.5 : 1"
       inkscape:vp_y="0 : 1000 : 0"
       inkscape:vp_x="0 : 0.5 : 1"
       sodipodi:type="inkscape:persp3d" />
    <inkscape:perspective
       id="perspective4210"
       inkscape:persp3d-origin="0.5 : 0.33333333 : 1"
       inkscape:vp_z="1 : 0.5 : 1"
       inkscape:vp_y="0 : 1000 : 0"
       inkscape:vp_x="0 : 0.5 : 1"
       sodipodi:type="inkscape:persp3d" />
    <inkscape:perspective
       id="perspective4210-9"
       inkscape:persp3d-origin="0.5 : 0.33333333 : 1"
       inkscape:vp_z="1 : 0.5 : 1"
       inkscape:vp_y="0 : 1000 : 0"
       inkscape:vp_x="0 : 0.5 : 1"
       sodipodi:type="inkscape:persp3d" />
    <inkscape:perspective
       id="perspective4354"
       inkscape:persp3d-origin="0.5 : 0.33333333 : 1"
       inkscape:vp_z="1 : 0.5 : 1"
       inkscape:vp_y="0 : 1000 : 0"
       inkscape:vp_x="0 : 0.5 : 1"
       sodipodi:type="inkscape:persp3d" />
    <inkscape:perspective
       id="perspective4376"
       inkscape:persp3d-origin="0.5 : 0.33333333 : 1"
       inkscape:vp_z="1 : 0.5 : 1"
       inkscape:vp_y="0 : 1000 : 0"
       inkscape:vp_x="0 : 0.5 : 1"
       sodipodi:type="inkscape:persp3d" />
  </defs>
  <sodipodi:namedview
     id="base"
     pagecolor="#ffffff"
     bordercolor="#666666"
     borderopacity="1.0"
     inkscape:pageopacity="0.0"
     inkscape:pageshadow="2"
     inkscape:zoom="0.24748737"
     inkscape:cx="2625.4333"
     inkscape:cy="-214.72762"
     inkscape:document-units="px"
     inkscape:current-layer="layer1"
     showgrid="false"
     inkscape:window-width="1918"
     inkscape:window-height="994"
     inkscape:window-x="0"
     inkscape:window-y="29"
     inkscape:window-maximized="1" />
  <metadata
     id="metadata7">
    <rdf:RDF>
      <cc:Work
         rdf:about="">
        <dc:format>image/svg+xml</dc:format>
        <dc:type
           rdf:resource="http://purl.org/dc/dcmitype/StillImage" />
        <dc:title></dc:title>
      </cc:Work>
    </rdf:RDF>
  </metadata>
  <g
     inkscape:label="Layer 1"
     inkscape:groupmode="layer"
     id="layer1"
     transform="translate(374.9788,45.092358)">
    <g
       id="g4390">
      <path
         sodipodi:nodetypes="csssc"
         id="path3688"
         d="m 243.99123,284.57366 c -11.73382,-2.53022 -22.99958,1.22107 -24.06508,8.56274 -2.35717,16.24167 -4.74588,30.49461 14.97924,31.02601 26.52825,0.71468 26.2446,-5.38673 27.50755,-21.86436 0.56693,-7.39689 -6.68789,-15.19416 -18.42171,-17.72439 z"
         style="fill:#ffd5d5;fill-opacity:1;fill-rule:evenodd;stroke:#000000;stroke-width:5.64166498;stroke-linecap:round;stroke-miterlimit:4;stroke-opacity:1;stroke-dasharray:none" />
      <path
         sodipodi:nodetypes="csssc"
         id="path2816"
         d="m 254.43966,126.21337 c -41.96586,0 -52.1262,53.01114 -78.10754,80.18718 -33.16549,34.69053 13.79493,89.72321 67.02626,87.60577 41.93269,-1.66799 96.5608,3.97753 87.06256,-91.81167 -4.14094,-41.76106 -34.01543,-75.98128 -75.98128,-75.98128 z"
         style="fill:#ffd5d5;fill-opacity:1;fill-rule:evenodd;stroke:#000000;stroke-width:5.64166498;stroke-linecap:round;stroke-miterlimit:4;stroke-opacity:1;stroke-dasharray:none" />
      <path
         sodipodi:nodetypes="csszssscsc"
         id="path3663"
         d="m 225.5175,126.3762 c -8.859,0.17151 -15.0688,3.27112 -17.43432,8.32537 -13.41053,28.65335 16.57566,7.13765 27.26131,22.60218 12.24562,17.72216 23.83219,7.61219 25.80071,7.68749 1.96852,0.0753 19.17216,-12.46861 28.91905,-2.38003 28.90576,29.91909 47.93673,19.71443 36.41065,-4.35373 -4.05944,-8.47671 -15.23888,-17.01804 -34.03609,-17.01804 -8.84582,0 -16.91592,1.6905 -22.96824,4.45652 -4.42845,-6.05892 -12.96089,-11.98925 -23.62937,-15.74475 -7.2031,-2.53562 -14.26228,-3.69237 -20.3237,-3.57501 z"
         style="fill:#ffff00;fill-opacity:1;fill-rule:evenodd;stroke:#000000;stroke-width:5.64166498;stroke-linecap:round;stroke-miterlimit:4;stroke-opacity:1;stroke-dasharray:none" />
      <path
         inkscape:transform-center-y="-1.0011504"
         inkscape:transform-center-x="67.924398"
         sodipodi:nodetypes="cssscsscccc"
         id="path2819"
         d="m 156.88462,66.578081 c -10.02688,-1.902837 -17.41653,-0.898199 -20.04621,3.498138 -5.60999,9.37883 12.64916,30.615501 40.78566,47.445451 13.11224,7.84313 27.98801,0.94816 38.63954,3.63623 0.008,0.002 0.011,0.0267 0.0192,0.0288 25.24218,22.52874 106.04764,48.30145 113.38006,29.81914 9.0274,-22.75478 -0.98647,-68.492279 -23.74125,-77.519688 C 290.11288,67.214383 235.94034,98.814901 218.7293,108.1116 195.91433,99.117325 168.53918,81.932868 156.88457,66.578047 l 3e-5,4.5e-5 -2e-5,-2.7e-5 z"
         style="fill:#d40000;fill-opacity:1;fill-rule:evenodd;stroke:#000000;stroke-width:5.64166498;stroke-linecap:round;stroke-miterlimit:4;stroke-opacity:1;stroke-dasharray:none" />
      <path
         transform="matrix(0.78356462,0,0,0.78356462,757.77277,80.20206)"
         d="m -650.53824,135.14368 c 0,12.27362 -9.94973,22.22335 -22.22336,22.22335 -12.27362,0 -22.22335,-9.94973 -22.22335,-22.22335 0,-12.27363 9.94973,-22.22336 22.22335,-22.22336 12.27363,0 22.22336,9.94973 22.22336,22.22336 z"
         sodipodi:ry="22.223358"
         sodipodi:rx="22.223358"
         sodipodi:cy="135.14368"
         sodipodi:cx="-672.7616"
         id="path2825"
         style="fill:#ffffff;fill-opacity:1;fill-rule:evenodd;stroke:#000000;stroke-width:7.19999981;stroke-linecap:round;stroke-miterlimit:4;stroke-opacity:1;stroke-dasharray:none"
         sodipodi:type="arc" />
      <path
         transform="matrix(0.78356462,0,0,0.78356462,803.76042,96.304062)"
         d="m -650.53824,135.14368 c 0,12.27362 -9.94973,22.22335 -22.22336,22.22335 -12.27362,0 -22.22335,-9.94973 -22.22335,-22.22335 0,-12.27363 9.94973,-22.22336 22.22335,-22.22336 12.27363,0 22.22336,9.94973 22.22336,22.22336 z"
         sodipodi:ry="22.223358"
         sodipodi:rx="22.223358"
         sodipodi:cy="135.14368"
         sodipodi:cx="-672.7616"
         id="path2825-1"
         style="fill:#ffffff;fill-opacity:1;fill-rule:evenodd;stroke:#000000;stroke-width:7.19999981;stroke-linecap:round;stroke-miterlimit:4;stroke-opacity:1;stroke-dasharray:none"
         sodipodi:type="arc" />
      <path
         sodipodi:nodetypes="csscc"
         id="path2850"
         d="m 324.42075,237.20615 c 5.99416,3.4513 14.90336,4.0005 21.99342,-4.1446 9.64934,-11.08521 12.27393,-34.06663 7.81973,-40.588 -1.53113,-2.24172 -3.88475,-3.29084 -6.70927,-3.2322 -10.53242,1.35573 -18.32517,9.70254 -23.82742,18.24708"
         style="fill:#ffd5d5;fill-opacity:1;fill-rule:evenodd;stroke:#000000;stroke-width:5.80880737;stroke-linecap:round;stroke-miterlimit:4;stroke-opacity:1;stroke-dasharray:none" />
      <path
         sodipodi:nodetypes="cc"
         id="path2854"
         d="m 330.62949,214.86218 c 4.70718,-11.75453 13.55011,-11.51811 13.8516,-11.27915"
         style="fill:none;stroke:#000000;stroke-width:2.82083249;stroke-linecap:butt;stroke-linejoin:miter;stroke-miterlimit:4;stroke-opacity:1;stroke-dasharray:none" />
      <path
         transform="matrix(0.78356462,0,0,0.78356462,120.88905,67.477503)"
         d="m 135,145.21933 c 0,3.94489 -3.19797,7.14286 -7.14286,7.14286 -3.94489,0 -7.14286,-3.19797 -7.14286,-7.14286 0,-3.94489 3.19797,-7.14286 7.14286,-7.14286 3.94489,0 7.14286,3.19797 7.14286,7.14286 z"
         sodipodi:ry="7.1428571"
         sodipodi:rx="7.1428571"
         sodipodi:cy="145.21933"
         sodipodi:cx="127.85714"
         id="path3628"
         style="fill:#000000;fill-opacity:1;fill-rule:evenodd;stroke:#000000;stroke-width:3.5999999;stroke-linecap:round;stroke-miterlimit:4;stroke-opacity:1;stroke-dasharray:none"
         sodipodi:type="arc" />
      <path
         transform="matrix(0.78356462,0,0,0.78356462,167.34324,85.387542)"
         d="m 135,145.21933 c 0,3.94489 -3.19797,7.14286 -7.14286,7.14286 -3.94489,0 -7.14286,-3.19797 -7.14286,-7.14286 0,-3.94489 3.19797,-7.14286 7.14286,-7.14286 3.94489,0 7.14286,3.19797 7.14286,7.14286 z"
         sodipodi:ry="7.1428571"
         sodipodi:rx="7.1428571"
         sodipodi:cy="145.21933"
         sodipodi:cx="127.85714"
         id="path3628-1"
         style="fill:#000000;fill-opacity:1;fill-rule:evenodd;stroke:#000000;stroke-width:3.5999999;stroke-linecap:round;stroke-miterlimit:4;stroke-opacity:1;stroke-dasharray:none"
         sodipodi:type="arc" />
      <path
         sodipodi:nodetypes="css"
         id="path3652"
         d="m 235.6571,219.32202 c -2.32887,5.53151 -8.13064,13.61885 0.39049,19.24789 11.11017,7.33938 15.2426,-3.46201 17.57146,-8.99352"
         style="fill:#ffd5d5;fill-opacity:1;fill-rule:evenodd;stroke:#000000;stroke-width:5.64166498;stroke-linecap:round;stroke-miterlimit:4;stroke-opacity:1;stroke-dasharray:none" />
      <path
         sodipodi:nodetypes="ccccc"
         id="path3655"
         d="m 209.84172,243.73575 c -2.16319,0.30052 -3.37307,1.26271 -2.63633,3.5761 14.15559,19.60374 35.4395,19.5118 55.59058,20.14249 1.58356,0.16036 1.73713,-1.19005 0.88953,-1.47275 -20.76764,-1.82056 -36.93039,-10.31158 -53.84378,-22.24584 z"
         style="font-size:medium;font-style:normal;font-variant:normal;font-weight:normal;font-stretch:normal;text-indent:0;text-align:start;text-decoration:none;line-height:normal;letter-spacing:normal;word-spacing:normal;text-transform:none;direction:ltr;block-progression:tb;writing-mode:lr-tb;text-anchor:start;color:#000000;fill:#000000;fill-opacity:1;stroke:none;stroke-width:3.5999999;marker:none;visibility:visible;display:inline;overflow:visible;enable-background:accumulate;font-family:Bitstream Vera Sans;-inkscape-font-specification:Bitstream Vera Sans" />
      <path
         sodipodi:nodetypes="cc"
         id="path3661"
         d="m 275.05415,256.19479 c 1.73811,5.53716 5.98934,11.42252 -4.74526,15.23153"
         style="fill:none;stroke:#000000;stroke-width:2.82083249;stroke-linecap:butt;stroke-linejoin:miter;stroke-miterlimit:4;stroke-opacity:1;stroke-dasharray:none" />
      <path
         sodipodi:nodetypes="ccsccc"
         id="rect3696"
         d="m 73.998265,233.70393 c -8.422011,-12.36881 -26.821832,-18.21996 -29.62248,-2.64493 -5.84399,10.99898 -3.959611,22.54503 7.347916,23.65248 29.280533,2.86769 66.914349,48.21583 83.594189,59.94339 l 15.43348,-19.2014 C 125.33222,274.83174 92.56341,273.77016 73.998265,233.70393 z"
         style="fill:#ffd5d5;fill-opacity:1;fill-rule:evenodd;stroke:#000000;stroke-width:5.64166498;stroke-linecap:round;stroke-miterlimit:4;stroke-opacity:1;stroke-dasharray:none" />
      <path
         sodipodi:nodetypes="cc"
         id="path4128-0-6"
         d="M -3.5414861,240.57642 C 1.399185,221.02242 15.566652,202.88794 30.001597,184.79459"
         style="fill:none;stroke:#000000;stroke-width:2.82083249;stroke-linecap:butt;stroke-linejoin:miter;stroke-miterlimit:4;stroke-opacity:1;stroke-dasharray:none" />
      <path
         sodipodi:nodetypes="cc"
         id="path4128-0-2"
         d="M -5.916045,238.79549 C -0.97536843,219.2415 13.192099,201.10701 27.627044,183.01367"
         style="fill:none;stroke:#000000;stroke-width:2.82083249;stroke-linecap:butt;stroke-linejoin:miter;stroke-miterlimit:4;stroke-opacity:1;stroke-dasharray:none" />
      <path
         sodipodi:nodetypes="cc"
         id="path4128-0"
         d="M -2.3542071,243.94038 C 2.5864656,224.38638 16.753933,206.2519 31.188878,188.15855"
         style="fill:none;stroke:#000000;stroke-width:2.82083249;stroke-linecap:butt;stroke-linejoin:miter;stroke-miterlimit:4;stroke-opacity:1;stroke-dasharray:none" />
      <path
         sodipodi:nodetypes="cccccccccccccccc"
         id="rect4077"
         d="m 30.076012,179.75811 -10.882451,2.43465 c 5.27969,7.51698 14.538595,14.17199 9.371292,18.70411 -10.600109,12.00785 -16.43772,22.41318 -18.021986,35.23592 -6.0644611,5.21576 -11.00955312,-3.7644 -17.0740134,-5.74031 l -1.5076622,9.20338 c 7.28664639,4.95191 13.5156247,7.41389 19.3652406,5.18063 13.966968,8.84417 18.939814,14.52274 36.141918,16.87112 C 58.856106,247.51606 66.5064,231.89653 66.837088,213.33596 54.16644,205.69217 49.102129,202.74615 37.20855,200.67649 c 3.158855,-6.03997 -4.33587,-14.8784 -7.132538,-20.91838 z m 4.781845,31.81483 c 12.617302,1.07725 10.918831,0.91026 19.980897,6.90516 -10.871254,8.627 -13.192822,19.48192 -12.488061,31.14669 -11.314422,-1.84792 -12.539236,-1.18631 -21.645972,-8.54575 0.106463,-12.01198 4.400632,-21.35793 14.153136,-29.5061 z"
         style="fill:#ff0000;fill-opacity:1;fill-rule:evenodd;stroke:#000000;stroke-width:2.82083249;stroke-linecap:round;stroke-miterlimit:4;stroke-opacity:1;stroke-dasharray:none" />
      <path
         sodipodi:nodetypes="cscc"
         id="path3702-0-0"
         d="m 47.81358,246.50708 c -0.326574,-4.88527 -8.20505,-12.5922 -12.970564,-12.92513 -2.419554,-0.17024 -2.906751,-2.68307 -6.265594,3.10194 -2.90353,9.92644 14.750956,20.42787 19.236158,9.82319 z"
         style="fill:#ffd5d5;fill-opacity:1;fill-rule:evenodd;stroke:#000000;stroke-width:5.64166498;stroke-linecap:round;stroke-miterlimit:4;stroke-opacity:1;stroke-dasharray:none" />
      <path
         sodipodi:nodetypes="cscc"
         id="path3702-0"
         d="m 52.205538,239.8007 c -0.326574,-4.88526 -8.205049,-12.59219 -12.970564,-12.92512 -2.419554,-0.17025 -2.906751,-2.68308 -6.265594,3.10193 -2.90353,9.92644 14.750956,20.42788 19.236158,9.82319 z"
         style="fill:#ffd5d5;fill-opacity:1;fill-rule:evenodd;stroke:#000000;stroke-width:5.64166498;stroke-linecap:round;stroke-miterlimit:4;stroke-opacity:1;stroke-dasharray:none" />
      <path
         sodipodi:nodetypes="ccccc"
         id="rect4069"
         d="M -253.33983,-42.271526 -176.4166,79.942912 -345.35703,306.86924 -372.15797,44.396999 -253.33983,-42.271526 z"
         style="fill:#ffff00;fill-opacity:1;fill-rule:evenodd;stroke:#000000;stroke-width:5.64166498;stroke-linecap:round;stroke-miterlimit:4;stroke-opacity:1;stroke-dasharray:none" />
      <path
         sodipodi:nodetypes="cc"
         id="path4075"
         d="m -223.31969,108.50665 c 66.60611,67.43683 144.258215,88.76035 237.44807,107.4603"
         style="fill:none;stroke:#000000;stroke-width:2.82083249;stroke-linecap:butt;stroke-linejoin:miter;stroke-miterlimit:4;stroke-opacity:1;stroke-dasharray:none" />
      <path
         sodipodi:nodetypes="ccc"
         id="path3702"
         d="M 56.08861,227.06208 C 52.61416,220.13514 40.981861,213.74379 38.544505,223.931 37.87755,234.25184 54.026151,238.39004 56.08861,227.06208 z"
         style="fill:#ffd5d5;fill-opacity:1;fill-rule:evenodd;stroke:#000000;stroke-width:5.64166498;stroke-linecap:round;stroke-miterlimit:4;stroke-opacity:1;stroke-dasharray:none" />
      <path
         sodipodi:nodetypes="ccsccc"
         id="rect3696-4"
         d="m 405.04625,320.35655 c 14.44338,-3.91234 32.22259,3.61687 24.215,17.26617 -2.71909,12.15469 -11.66274,19.69614 -20.96977,13.17955 -24.10028,-16.87452 -82.18467,-6.92652 -102.48144,-8.87428 l 0.77436,-24.62289 c 32.72025,0.88038 58.29418,21.3961 98.46185,3.05145 z"
         style="fill:#ffd5d5;fill-opacity:1;fill-rule:evenodd;stroke:#000000;stroke-width:5.64166498;stroke-linecap:round;stroke-miterlimit:4;stroke-opacity:1;stroke-dasharray:none" />
      <path
         sodipodi:nodetypes="cczcc"
         inkscape:transform-center-y="-0.77308688"
         inkscape:transform-center-x="-4.4592172"
         id="path3864-7-5"
         d="m 293.92841,594.7328 c -26.25142,56.372 21.40295,65.52255 49.18841,69.37033 30.18395,1.97626 88.68721,-24.3044 90.31619,-53.34454 1.62897,-29.04015 -73.45655,5.0805 -90.42063,-20.7843 -13.71825,-7.05094 -36.66124,-14.06315 -49.08397,4.75851 z"
         style="fill:#ff6600;fill-opacity:1;fill-rule:evenodd;stroke:#000000;stroke-width:5.64166498;stroke-linecap:round;stroke-miterlimit:4;stroke-opacity:1;stroke-dasharray:none" />
      <path
         sodipodi:nodetypes="cczcc"
         inkscape:transform-center-y="-2.9982157"
         inkscape:transform-center-x="-5.0717224"
         id="path3864-7"
         d="m 295.25315,579.2014 c -30.23727,54.33825 16.63569,66.89204 44.07251,72.72797 29.96367,4.14173 90.20537,-17.8638 93.91846,-46.71161 3.7131,-28.84782 -73.63171,-0.21506 -88.69188,-27.23282 -13.17569,-8.0192 -35.55501,-16.66312 -49.29909,1.21646 z"
         style="fill:#ffffff;fill-opacity:1;fill-rule:evenodd;stroke:#000000;stroke-width:5.64166498;stroke-linecap:round;stroke-miterlimit:4;stroke-opacity:1;stroke-dasharray:none" />
      <path
         sodipodi:nodetypes="cccc"
         id="rect4000"
         d="m 371.33785,593.94073 c -1.27336,10.35541 -6.30115,20.97346 -18.28844,32.0784 -14.00848,-0.28035 -25.44616,-5.06997 -32.07841,-18.28844 3.84733,-13.20119 8.24228,-25.79156 18.28845,-32.07841"
         style="fill:#ff6600;fill-opacity:1;fill-rule:evenodd;stroke:#000000;stroke-width:5.64166498;stroke-linecap:round;stroke-miterlimit:4;stroke-opacity:1;stroke-dasharray:none" />
      <path
         sodipodi:nodetypes="ccccsc"
         id="path3795-6-1"
         d="m 174.84458,458.74365 1.98801,37.60128 c 13.54778,32.22879 72.25685,31.38815 103.49542,26.56836 24.50765,50.51039 -70.03194,102.34296 89.02022,68.81523 14.5123,-34.11524 -11.72772,-99.03254 -22.23942,-118.84126 -15.24198,-28.7227 -144.99333,-12.05712 -172.26423,-14.14361 z"
         style="fill:#5599ff;fill-opacity:1;fill-rule:evenodd;stroke:#000000;stroke-width:5.64166498;stroke-linecap:round;stroke-miterlimit:4;stroke-opacity:1;stroke-dasharray:none" />
      <path
         sodipodi:nodetypes="ccczcc"
         inkscape:transform-center-y="-11.626032"
         inkscape:transform-center-x="-2.6844129"
         id="path3864-74"
         d="m 128.76176,561.32852 c -1.74389,-0.52799 -3.51953,-0.71591 -5.28625,-0.52154 -29.65889,13.4747 -41.235814,71.11148 -27.476114,95.55545 16.701354,25.21984 73.037724,55.87142 97.136954,39.58615 24.09924,-16.28527 -48.51635,-55.38808 -38.20113,-84.54909 -2.83965,-25.80931 -13.96617,-46.37504 -26.17346,-50.07097 z"
         style="fill:#ff6600;fill-opacity:1;fill-rule:evenodd;stroke:#000000;stroke-width:5.64166498;stroke-linecap:round;stroke-miterlimit:4;stroke-opacity:1;stroke-dasharray:none" />
      <path
         sodipodi:nodetypes="ccczcc"
         inkscape:transform-center-y="-9.386563"
         inkscape:transform-center-x="2.0065843"
         id="path3864"
         d="m 151.5385,548.60394 c -1.63016,-0.81394 -3.34885,-1.29801 -5.12308,-1.40373 -31.50356,8.29116 -52.615153,63.15757 -43.16542,89.56855 12.21885,27.67084 62.5933,67.36619 89.08949,55.3689 26.4962,-11.9973 -38.50301,-62.763 -23.42737,-89.77213 1.54435,-25.91908 -5.96243,-48.06399 -17.37362,-53.76159 z"
         style="fill:#ffffff;fill-opacity:1;fill-rule:evenodd;stroke:#000000;stroke-width:5.64166498;stroke-linecap:round;stroke-miterlimit:4;stroke-opacity:1;stroke-dasharray:none" />
      <path
         sodipodi:nodetypes="ccccc"
         id="rect4000-1"
         d="m 173.66001,601.47907 c 6.03651,10.19856 -8.75529,33.14541 -19.07605,31.61638 -10.32076,-1.52903 -20.81125,-6.81783 -31.61635,-19.07605 0.62658,-13.99726 5.69759,-25.31301 19.07601,-31.61638 13.10202,4.17257 25.57987,8.8775 31.61639,19.07605 z"
         style="fill:#ff6600;fill-opacity:1;fill-rule:evenodd;stroke:#000000;stroke-width:5.64166498;stroke-linecap:round;stroke-miterlimit:4;stroke-opacity:1;stroke-dasharray:none" />
      <path
         sodipodi:nodetypes="cccscc"
         id="path3795-6"
         d="m 162.15109,474.67374 c 7.22006,17.88874 18.43929,35.1281 27.50229,46.7389 -32.13261,46.03716 -123.503847,-11.19609 -16.63435,111.28088 36.85968,-3.97753 80.72273,-58.55616 92.88485,-77.39665 11.9394,-18.49546 -19.89,-72.65562 -45.25956,-113.41412 -27.32138,-6.45552 -50.04976,-2.70438 -58.49323,32.79099 z"
         style="fill:#5599ff;fill-opacity:1;fill-rule:evenodd;stroke:#000000;stroke-width:5.64166498;stroke-linecap:round;stroke-miterlimit:4;stroke-opacity:1;stroke-dasharray:none" />
      <path
         sodipodi:nodetypes="cscsc"
         id="path3795-6-6"
         d="m 171.64787,633.48028 c 36.85973,-3.9776 80.72273,-58.5562 92.88493,-77.3967 11.9394,-18.49542 -19.8901,-72.65558 -45.2596,-113.41408 -6.3978,26.67863 29.2454,55.32952 23.8259,99.14196 -7.2691,58.76512 -73.41873,84.13802 -71.45123,91.66882 z"
         style="fill:#000000;fill-opacity:0.31292515;fill-rule:evenodd;stroke:none" />
      <path
         sodipodi:nodetypes="cccsc"
         id="path3795-6-1-4"
         d="m 170.75462,460.12128 c 35.75794,23.98035 95.02647,3.98405 149.80723,25.26579 37.45042,30.98802 34.25938,79.57382 44.69642,107.71908 14.5123,-34.11524 -11.72772,-99.03254 -22.23942,-118.84126 -15.24198,-28.7227 -144.99333,-12.05712 -172.26423,-14.14361 z"
         style="fill:#000000;fill-opacity:0.31372549;fill-rule:evenodd;stroke:none" />
      <path
         sodipodi:nodetypes="ccccccccccc"
         id="rect3691"
         d="m 375.60822,313.92279 c 6.34397,18.63015 8.02223,35.36258 -3.03267,46.91596 -31.81299,5.50935 -44.3748,15.43373 -77.91382,3.84344 4.27503,58.0109 -6.05611,62.26057 12.1788,93.67103 -52.73255,37.73898 -98.67977,46.96954 -145.76428,12.12631 -3.67783,-34.84286 2.3448,-71.4552 22.86043,-110.71123 -30.0835,-1.08991 -50.52113,-29.68614 -70.90078,-47.40648 -7.94002,-16.21724 -6.90004,-31.85402 3.03267,-46.91596 35.53929,-1.2565 58.48274,21.08078 98.50068,36.85169 7.52136,33.62854 32.8399,18.59401 58.08643,3.75473 42.29852,-5.55333 64.94306,-7.05561 102.95254,7.87051 z"
         style="fill:#000080;fill-opacity:1;fill-rule:evenodd;stroke:#000000;stroke-width:5.64166498;stroke-linecap:round;stroke-miterlimit:4;stroke-opacity:1;stroke-dasharray:none" />
      <path
         sodipodi:nodetypes="ccssss"
         id="path3699"
         d="m 73.351103,234.14428 c 3.661308,-2.20001 3.070273,-9.92748 -1.329764,-17.25012 -4.400036,-7.32262 -14.166394,-4.66273 -17.803372,-2.42272 -2.912909,1.79405 -4.923739,10.79681 -0.792309,11.35769 2.286136,0.31036 3.643019,0.44492 5.484326,-0.94099 2.42894,-1.82822 6.758143,1.77207 4.737392,7.11612"
         style="fill:#ffd5d5;fill-opacity:1;fill-rule:evenodd;stroke:#000000;stroke-width:5.64166498;stroke-linecap:round;stroke-miterlimit:4;stroke-opacity:1;stroke-dasharray:none" />
      <path
         sodipodi:nodetypes="cscc"
         id="path3702-0-0-4"
         d="m 416.59906,347.11643 c 3.42671,-3.49717 14.42398,-4.22314 18.25934,-1.37515 1.94807,1.44507 3.95306,-0.14606 2.73946,6.43234 -4.25408,9.42696 -24.49315,5.91395 -20.9988,-5.05719 z"
         style="fill:#ffd5d5;fill-opacity:1;fill-rule:evenodd;stroke:#000000;stroke-width:5.64166498;stroke-linecap:round;stroke-miterlimit:4;stroke-opacity:1;stroke-dasharray:none" />
      <path
         sodipodi:nodetypes="cscc"
         id="path3702-0-4"
         d="m 417.62767,339.16616 c 3.42671,-3.49716 14.42398,-4.22314 18.25933,-1.37515 1.94808,1.44507 3.95307,-0.14605 2.73947,6.43235 -4.25407,9.42696 -24.49314,5.91395 -20.9988,-5.0572 z"
         style="fill:#ffd5d5;fill-opacity:1;fill-rule:evenodd;stroke:#000000;stroke-width:5.64166498;stroke-linecap:round;stroke-miterlimit:4;stroke-opacity:1;stroke-dasharray:none" />
      <path
         sodipodi:nodetypes="ccc"
         id="path3702-4"
         d="m 422.96774,326.96639 c 7.14553,-2.99927 20.13727,-0.28373 15.35954,9.03791 -6.20906,8.27117 -21.16423,0.90604 -15.35954,-9.03791 z"
         style="fill:#ffd5d5;fill-opacity:1;fill-rule:evenodd;stroke:#000000;stroke-width:5.64166498;stroke-linecap:round;stroke-miterlimit:4;stroke-opacity:1;stroke-dasharray:none" />
      <path
         sodipodi:nodetypes="ccssss"
         id="path3699-7"
         d="m 405.25115,321.11203 c -1.34874,-4.05291 4.12813,-9.53624 12.23399,-12.23374 8.10583,-2.69748 13.79125,5.67706 15.0955,9.74451 1.04459,3.25768 -3.28634,11.40238 -6.78852,9.14006 -1.93793,-1.25185 -3.05584,-2.03257 -3.55227,-4.28307 -0.65487,-2.96871 -6.28489,-3.05171 -8.22766,2.32117"
         style="fill:#ffd5d5;fill-opacity:1;fill-rule:evenodd;stroke:#000000;stroke-width:5.64166498;stroke-linecap:round;stroke-miterlimit:4;stroke-opacity:1;stroke-dasharray:none" />
      <path
         sodipodi:nodetypes="ccccc"
         id="rect4000-1-8"
         d="m 188.57531,670.58421 c 1.77101,6.79911 -10.41241,17.45448 -16.04325,14.89447 -5.63083,-2.56002 -10.74319,-7.29023 -14.89445,-16.04325 2.64735,-7.87346 7.38848,-13.49171 16.04322,-14.89447 6.78312,4.52146 13.12346,9.24413 14.89448,16.04325 z"
         style="fill:#ff6600;fill-opacity:1;fill-rule:evenodd;stroke:#000000;stroke-width:5.64166498;stroke-linecap:round;stroke-miterlimit:4;stroke-opacity:1;stroke-dasharray:none" />
      <path
         sodipodi:nodetypes="ccccc"
         id="rect4000-1-8-3"
         d="m 415.58336,597.01726 c 6.43789,2.8139 7.27454,18.97781 1.78015,21.81884 -5.49443,2.84101 -12.37339,3.93229 -21.81884,1.78013 -4.54916,-6.95017 -6.03119,-14.15064 -1.78016,-21.81883 7.74836,-2.5332 15.38095,-4.59405 21.81885,-1.78014 z"
         style="fill:#ff6600;fill-opacity:1;fill-rule:evenodd;stroke:#000000;stroke-width:5.64166498;stroke-linecap:round;stroke-miterlimit:4;stroke-opacity:1;stroke-dasharray:none" />
      <path
         sodipodi:nodetypes="cccc"
         id="rect4072"
         d="m -222.82028,109.88006 -65.67081,33.83676 c 9.98169,-24.82693 26.93024,-43.32909 31.83404,-99.507574 l 33.83677,65.670814 z"
         style="fill:#ffff00;fill-opacity:1;fill-rule:evenodd;stroke:#000000;stroke-width:5.64166498;stroke-linecap:round;stroke-miterlimit:4;stroke-opacity:1;stroke-dasharray:none" />
      <path
         sodipodi:nodetypes="cc"
         id="path4128"
         d="M 35.200298,188.42746 C 30.259625,207.98145 15.042745,226.95547 0.60779254,245.04882"
         style="fill:none;stroke:#000000;stroke-width:2.82083249;stroke-linecap:butt;stroke-linejoin:miter;stroke-miterlimit:4;stroke-opacity:1;stroke-dasharray:none" />
      <path
         sodipodi:nodetypes="cc"
         id="path4128-9"
         d="m 33.145729,185.27027 c -4.940673,19.554 -20.857166,40.20708 -35.2921191,58.30042"
         style="fill:none;stroke:#000000;stroke-width:2.82083249;stroke-linecap:butt;stroke-linejoin:miter;stroke-miterlimit:4;stroke-opacity:1;stroke-dasharray:none" />
      <path
         sodipodi:nodetypes="cc"
         id="path4128-5"
         d="m 31.060969,182.07022 c -4.940673,19.554 -21.2769374,41.81619 -35.7118988,59.90954"
         style="fill:none;stroke:#000000;stroke-width:2.82083249;stroke-linecap:butt;stroke-linejoin:miter;stroke-miterlimit:4;stroke-opacity:1;stroke-dasharray:none" />
      <path
         sodipodi:nodetypes="cc"
         id="path4128-94"
         d="M 28.580438,179.8716 C 23.639766,199.42559 7.793229,221.54786 -6.6417254,239.64121"
         style="fill:none;stroke:#000000;stroke-width:2.82083249;stroke-linecap:butt;stroke-linejoin:miter;stroke-miterlimit:4;stroke-opacity:1;stroke-dasharray:none" />
    </g>
  </g>
</svg>
